<svg width="75" height="97" viewBox="0 0 75 97" fill="none" xmlns="http://www.w3.org/2000/svg">
<path d="M20.2392 86.6439C19.5879 86.2299 19.3949 85.367 19.8084 84.7158C20.2219 84.0646 21.0849 83.8764 21.7364 84.2847C23.7013 85.5327 25.6163 86.0874 27.4283 85.9387C28.1984 85.8738 28.8717 86.4471 28.9355 87.2156C28.9987 87.985 28.4271 88.6593 27.6582 88.7227C25.0015 88.9419 22.4888 88.0721 20.2392 86.6439Z" fill="white"/>
<path d="M16.9871 74.0985C15.9954 72.1886 16.4385 69.6638 18.2577 68.183C17.8594 66.0311 18.7643 63.5583 20.58 62.219C21.2006 61.7622 22.0753 61.8926 22.5332 62.5147C22.9912 63.1349 22.8593 64.0094 22.2382 64.4678C21.1426 65.2757 20.635 67.0612 21.1738 68.212C21.5108 68.9341 21.1773 69.792 20.4408 70.0956C19.4461 70.5055 18.9579 71.8319 19.4665 72.8115C19.8221 73.4962 19.5552 74.339 18.8702 74.695C18.1876 75.0496 17.3432 74.7849 16.9871 74.0985Z" fill="white"/>
<path d="M16.6925 78.5349C15.2792 76.7261 15.6873 73.9214 17.4998 72.4455C18.0979 71.9584 18.9773 72.0464 19.4651 72.6471C19.9519 73.2455 19.862 74.1248 19.2637 74.6119C18.6099 75.1447 18.4408 76.2364 18.8934 76.8141C19.3685 77.4223 19.261 78.3002 18.6532 78.775C18.0423 79.2522 17.165 79.1395 16.6925 78.5349Z" fill="white"/>
<path d="M37.0538 74.6004C36.788 73.876 37.1599 73.0739 37.8838 72.8083C38.2375 72.6782 38.5548 72.2137 38.6563 71.6775C38.7915 70.9634 38.768 70.2998 38.5804 69.5248C38.3985 68.7751 38.859 68.0203 39.6088 67.8383C40.3582 67.6581 41.1134 68.1172 41.2951 68.8676C42.1249 72.2855 40.7786 74.7218 38.8465 75.4307C38.12 75.6979 37.3182 75.3221 37.0538 74.6004Z" fill="white"/>
<path d="M35.8975 79.9182C35.5154 79.2485 35.7495 78.3949 36.4197 78.0137C37.3784 77.4671 37.6899 76.088 37.0769 75.2034C36.6381 74.5689 36.7967 73.6987 37.4309 73.2602C38.0652 72.8218 38.9355 72.9802 39.3746 73.6138C40.9215 75.8496 40.1774 79.0889 37.8024 80.4405C37.1353 80.8208 36.2814 80.5923 35.8975 79.9182Z" fill="white"/>
<path d="M33.8597 83.4627C33.6081 82.7331 33.9954 81.9375 34.7247 81.6857C35.411 81.4487 35.8722 80.4499 35.6087 79.6356C35.3712 78.9016 35.7742 78.1135 36.5082 77.8765C37.2422 77.6385 38.0295 78.0427 38.2671 78.7757C38.9911 81.0149 37.7905 83.5834 35.6361 84.3271C35.3495 84.4259 34.1103 84.1866 33.8597 83.4627Z" fill="white"/>
<path d="M19.6947 85.7314C18.447 83.5846 17.6316 80.9977 16.7815 78.7359C16.5102 78.0137 16.8757 77.2078 17.5978 76.9369C18.3201 76.666 19.1251 77.0328 19.3968 77.7532C20.2277 79.965 21.0134 82.4412 22.11 84.3267C22.4978 84.9942 22.2714 85.8492 21.6044 86.2371C20.9369 86.6247 20.0816 86.3969 19.6947 85.7314Z" fill="white"/>
<path d="M26.2533 87.7229C25.9459 87.0156 26.2705 86.1927 26.9783 85.8853C29.1577 84.9392 32.0705 82.8076 34.5467 81.6827C35.2494 81.3624 36.0771 81.6742 36.3964 82.3764C36.7157 83.0787 36.4052 83.9067 35.7027 84.2261C33.362 85.2905 30.5445 87.3828 28.091 88.4481C27.3809 88.7564 26.5592 88.4282 26.2533 87.7229Z" fill="white"/>
<path d="M20.4697 63.2617C19.8089 62.8638 19.5961 62.0053 19.9945 61.344C20.3927 60.6835 21.2512 60.4722 21.9118 60.869C27.027 63.9521 35.4645 66.4326 41.1551 67.2902C41.9154 67.4112 42.443 68.1175 42.3284 68.8795C42.2136 69.6423 41.5019 70.1679 40.7391 70.0528C34.6213 69.1315 25.8051 66.4771 20.4697 63.2617Z" fill="white"/>
<path d="M38.6048 68.3225C38.7381 67.5623 39.4621 67.0538 40.222 67.187C41.0391 67.3297 42.0573 67.3223 42.7257 66.8381L42.7262 66.8392C43.3677 66.3706 43.7191 65.6433 43.9827 64.8961C44.06 64.6518 46.8668 58.8523 47.0803 58.3411C47.3171 57.6583 48.0434 57.2624 48.7536 57.4491C49.4978 57.6278 49.9464 58.4084 49.7511 59.1539C49.6349 59.5953 46.8311 65.3189 46.6007 65.8687C45.4178 69.2307 42.9701 70.5064 39.7397 69.9394C39.6854 69.9298 38.471 69.0862 38.6048 68.3225Z" fill="white"/>
<path d="M19.6905 62.5033C18.2076 60.6824 18.1556 58.3025 18.3731 56.627C18.6161 54.7738 19.1627 53.2916 19.3886 51.6604C20.0665 46.6054 17.1752 41.2278 16.2034 35.792C14.578 26.7422 18.4679 16.9076 25.8834 11.3207C34.0199 5.19079 46.4199 4.18388 56.206 10.8257C60.0798 13.4968 63.1748 17.1385 65.076 20.8386C69.9769 30.3888 68.9156 44.4601 58.6572 51.4764C56.6521 52.8475 54.7268 54.2706 52.7393 55.6484C50.9962 56.8575 50.0253 58.5033 49.1044 60.6023C48.7938 61.3097 47.9709 61.6341 47.2637 61.3202C46.5572 61.0104 46.2361 60.1861 46.5458 59.4802C47.5077 57.2881 48.7308 55.0286 51.1471 53.3528C53.1716 51.9484 55.0493 50.5589 57.08 49.1702C66.0661 43.024 66.9385 30.5873 62.5905 22.1145C60.8939 18.8006 58.0703 15.4934 54.5577 13.0917C45.899 7.14946 34.729 8.15448 27.5644 13.5518C20.9699 18.5206 17.5095 27.2599 18.9532 35.3002C19.9177 40.6922 22.9486 46.1311 22.1568 52.0374C21.9221 53.7328 21.3441 55.4575 21.1434 56.9885C21.0231 57.9139 20.9558 59.6331 21.8565 60.7381C22.3438 61.3365 22.254 62.216 21.6557 62.704C21.0584 63.19 20.178 63.1012 19.6905 62.5033Z" fill="white"/>
<path d="M17.1217 79.0065C16.4952 78.5563 16.3521 77.6835 16.802 77.0574C17.2517 76.4312 18.1248 76.2859 18.7513 76.738C22.8186 79.6591 29.2655 81.5217 35.1769 81.4799C35.9486 81.4734 36.5781 82.0952 36.5834 82.8673C36.5888 83.6384 35.9674 84.2685 35.1962 84.2734C29.139 84.3149 21.9157 82.4502 17.1217 79.0065Z" fill="white"/>
<path d="M27.0315 65.8134C26.3218 65.5111 25.9919 64.6899 26.2944 63.981C28.9149 57.8352 30.8732 48.6393 32.4739 40.0496C24.8501 34.6838 25.9581 23.865 31.3552 21.4667C33.4244 20.5454 35.9369 21.1792 37.0747 22.9107C38.0749 24.4295 37.8459 26.1974 37.5527 27.7354C36.9604 30.8437 36.2916 34.7151 35.5759 38.6328C37.1946 39.4039 39.0266 39.7915 40.8996 39.7796C42.9612 35.4896 45.321 31.3471 47.9381 27.4538C48.8202 26.1422 49.9828 24.9558 51.1282 24.1988C52.9636 22.9868 55.4013 23.1154 57.0581 24.5118C59.2589 26.368 58.2528 28.88 57.8742 29.8252C55.2807 36.2965 49.7753 41.6253 42.727 42.4554C39.2151 50.0779 36.6722 58.1377 35.3292 66.0603C35.2004 66.8209 34.4791 67.3331 33.7184 67.2044C32.9578 67.0663 32.4458 66.3542 32.5746 65.5936C33.8854 57.8606 36.3057 50.0015 39.6319 42.5211C38.0416 42.4017 36.4919 42.044 35.0532 41.4527C33.4561 49.9287 31.4983 58.899 28.8643 65.0758C28.5563 65.7987 27.7242 66.1118 27.0315 65.8134ZM32.4906 24.0193C31.3262 24.5371 30.6671 25.825 30.3778 26.5464C29.0189 29.9364 30.1927 34.2708 33.0462 36.9284C33.6659 33.505 34.2715 30.0284 34.8081 27.2129C34.9988 26.2127 35.1665 25.0927 34.7412 24.4462C34.326 23.8168 33.2443 23.6837 32.4906 24.0193ZM52.6681 26.5303C51.8318 27.0832 50.9306 28.0106 50.2567 29.0132C48.0504 32.2951 46.032 35.7593 44.2283 39.3405C49.3212 38.0135 53.292 33.7491 55.281 28.7862C55.8697 27.317 55.6422 26.9733 55.2568 26.6479C54.5479 26.0498 53.4581 26.0081 52.6681 26.5303Z" fill="white"/>
</svg>
