<svg width="44" height="44" viewBox="0 0 44 44" fill="none" xmlns="http://www.w3.org/2000/svg">
<mask id="mask0_746_35920" style="mask-type:alpha" maskUnits="userSpaceOnUse" x="0" y="0" width="44" height="44">
<rect width="44" height="44" fill="#D9D9D9"/>
</mask>
<g mask="url(#mask0_746_35920)">
<path d="M10.7243 22.0003L10.1743 19.2503C9.80768 19.0975 9.46393 18.9371 9.1431 18.7691C8.82227 18.601 8.49379 18.3948 8.15768 18.1503L5.49935 18.9753L3.66602 15.8587L5.77435 14.0253C5.71324 13.6281 5.68268 13.2309 5.68268 12.8337C5.68268 12.4364 5.71324 12.0392 5.77435 11.642L3.66602 9.80866L5.49935 6.69199L8.15768 7.51699C8.49379 7.27255 8.82227 7.0663 9.1431 6.89824C9.46393 6.73019 9.80768 6.56977 10.1743 6.41699L10.7243 3.66699H14.391L14.941 6.41699C15.3077 6.56977 15.6514 6.73019 15.9723 6.89824C16.2931 7.0663 16.6216 7.27255 16.9577 7.51699L19.616 6.69199L21.4493 9.80866L19.341 11.642C19.4021 12.0392 19.4327 12.4364 19.4327 12.8337C19.4327 13.2309 19.4021 13.6281 19.341 14.0253L21.4493 15.8587L19.616 18.9753L16.9577 18.1503C16.6216 18.3948 16.2931 18.601 15.9723 18.7691C15.6514 18.9371 15.3077 19.0975 14.941 19.2503L14.391 22.0003H10.7243ZM12.5577 16.5003C13.566 16.5003 14.4292 16.1413 15.1473 15.4232C15.8653 14.7052 16.2243 13.842 16.2243 12.8337C16.2243 11.8253 15.8653 10.9621 15.1473 10.2441C14.4292 9.52602 13.566 9.16699 12.5577 9.16699C11.5493 9.16699 10.6862 9.52602 9.9681 10.2441C9.25004 10.9621 8.89102 11.8253 8.89102 12.8337C8.89102 13.842 9.25004 14.7052 9.9681 15.4232C10.6862 16.1413 11.5493 16.5003 12.5577 16.5003ZM27.1327 42.167L26.3077 38.317C25.7882 38.1337 25.307 37.9121 24.8639 37.6524C24.4209 37.3927 23.9855 37.0948 23.5577 36.7587L19.891 37.9503L17.3243 33.5503L20.2577 30.9837C20.1966 30.4337 20.166 29.8837 20.166 29.3337C20.166 28.7837 20.1966 28.2337 20.2577 27.6837L17.3243 25.117L19.891 20.717L23.5577 21.9087C23.9855 21.5725 24.4209 21.2746 24.8639 21.0149C25.307 20.7552 25.7882 20.5337 26.3077 20.3503L27.1327 16.5003H32.266L33.091 20.3503C33.6105 20.5337 34.0917 20.7552 34.5348 21.0149C34.9778 21.2746 35.4132 21.5725 35.841 21.9087L39.5077 20.717L42.0743 25.117L39.141 27.6837C39.2021 28.2337 39.2327 28.7837 39.2327 29.3337C39.2327 29.8837 39.2021 30.4337 39.141 30.9837L42.0743 33.5503L39.5077 37.9503L35.841 36.7587C35.4132 37.0948 34.9778 37.3927 34.5348 37.6524C34.0917 37.9121 33.6105 38.1337 33.091 38.317L32.266 42.167H27.1327ZM29.6993 34.8337C31.2271 34.8337 32.5257 34.2989 33.5952 33.2295C34.6646 32.16 35.1993 30.8614 35.1993 29.3337C35.1993 27.8059 34.6646 26.5073 33.5952 25.4378C32.5257 24.3684 31.2271 23.8337 29.6993 23.8337C28.1716 23.8337 26.873 24.3684 25.8035 25.4378C24.7341 26.5073 24.1993 27.8059 24.1993 29.3337C24.1993 30.8614 24.7341 32.16 25.8035 33.2295C26.873 34.2989 28.1716 34.8337 29.6993 34.8337Z" fill="white"/>
</g>
</svg>
